<svg width="72" height="68" viewBox="0 0 72 68" fill="none" xmlns="http://www.w3.org/2000/svg">
<path fill-rule="evenodd" clip-rule="evenodd" d="M18 0C27.941 0 36 7.61116 36 17V0H54C63.941 0 72 7.61116 72 17C72 26.3888 63.941 34 54 34C63.941 34 72 41.6112 72 51C72 55.6619 70.013 59.8856 66.7953 62.9568L66.728 63.0209L66.6682 63.077C63.4156 66.1203 58.9403 68 54 68C49.0934 68 44.6452 66.1458 41.3982 63.1389C41.3561 63.0998 41.314 63.0603 41.272 63.0209C41.2326 62.9836 41.1934 62.9462 41.1543 62.9087C37.9663 59.8415 36 55.6376 36 51C36 60.3888 27.941 68 18 68C8.05887 68 0 60.3888 0 51V34H18C8.05887 34 0 26.3888 0 17C0 7.61116 8.05887 0 18 0ZM32.4 17C32.4 24.5111 25.9529 30.6 18 30.6V3.4C25.9529 3.4 32.4 9.48892 32.4 17ZM68.4 51C68.4 43.4889 61.9529 37.4 54 37.4C46.0471 37.4 39.6 43.4889 39.6 51H68.4ZM3.6 37.4V51C3.6 58.5111 10.0471 64.6 18 64.6C25.9529 64.6 32.4 58.5111 32.4 51V37.4H3.6ZM39.6 30.6V3.4H54C61.9529 3.4 68.4 9.48892 68.4 17C68.4 24.5111 61.9529 30.6 54 30.6H39.6Z" fill="#101828"/>
</svg>
