<svg width="176" height="38" viewBox="0 0 176 38" fill="none" xmlns="http://www.w3.org/2000/svg">
<path d="M2.5439 37.1998C2.0639 37.1998 1.5199 36.8478 0.911896 36.1438C0.303897 35.4398 -0.000103414 34.7358 -0.000103414 34.0318C-0.000103414 33.2958 0.879897 29.8238 2.6399 23.6158C4.3999 17.4078 5.4079 12.6878 5.6639 9.45577C5.2479 9.19977 4.8799 8.79977 4.5599 8.25577C4.2399 7.71177 4.0799 7.23177 4.0799 6.81577C4.0799 6.07977 5.1679 5.32777 7.3439 4.55977C9.5199 3.75977 11.9199 3.35977 14.5439 3.35977C17.1999 3.35977 19.4879 3.99977 21.4079 5.27977C23.3599 6.52777 24.3359 8.30377 24.3359 10.6078C24.3359 12.1758 23.8879 13.6478 22.9919 15.0238C22.1279 16.3678 21.0559 17.4718 19.7759 18.3358C18.5279 19.1998 17.2799 19.9678 16.0319 20.6398C14.7839 21.3118 13.7119 21.8718 12.8159 22.3198C11.9519 22.7358 11.5199 23.0398 11.5199 23.2318C11.5199 23.9358 12.0639 24.8478 13.1519 25.9678C14.2719 27.0878 15.0559 27.8558 15.5039 28.2718C15.9519 28.6878 16.5439 29.2478 17.2799 29.9518C18.0159 30.6238 18.7039 31.2318 19.3439 31.7758C20.0159 32.3198 20.5439 32.7678 20.9279 33.1198C21.3439 33.4718 21.7599 33.8398 22.1759 34.2238C22.9759 34.9598 23.3759 35.5518 23.3759 35.9998C23.3759 36.7678 22.8479 37.1518 21.7919 37.1518C19.8719 37.1518 17.1359 35.4878 13.5839 32.1598C10.0319 28.7998 7.8559 25.9518 7.0559 23.6158C5.5519 28.6078 4.6879 31.5038 4.4639 32.3038C4.2399 33.0718 3.9839 33.8718 3.6959 34.7038C3.1839 36.3678 2.7999 37.1998 2.5439 37.1998ZM9.7919 10.7518C9.7919 12.8318 9.1199 16.2718 7.7759 21.0718C8.3199 20.6558 9.3599 20.0478 10.8959 19.2478C12.4319 18.4158 13.8079 17.6638 15.0239 16.9918C16.2719 16.2878 17.4079 15.3598 18.4319 14.2078C19.4559 13.0558 19.9679 11.8558 19.9679 10.6078C19.9679 8.62377 18.2399 7.63177 14.7839 7.63177C13.2159 7.63177 11.3919 8.03177 9.3119 8.83177C9.6319 9.53577 9.7919 10.1758 9.7919 10.7518ZM33.7763 6.62377C33.7763 5.98377 34.0323 5.37577 34.5443 4.79977C35.0563 4.22377 35.5683 3.93577 36.0803 3.93577C36.6243 3.93577 37.2643 4.59177 38.0003 5.90377C38.7363 7.18377 39.1043 8.25577 39.1043 9.11977C39.1043 9.43977 38.9603 9.72777 38.6723 9.98377C38.3843 10.2398 38.0803 10.3678 37.7603 10.3678C36.9923 10.3678 36.1283 9.90377 35.1683 8.97577C34.2403 8.04777 33.7763 7.26377 33.7763 6.62377ZM33.5363 13.4398C34.1443 13.4398 34.7203 13.8078 35.2643 14.5438C35.8083 15.2798 36.0803 15.9998 36.0803 16.7038C36.0803 17.4078 35.6163 19.5198 34.6883 23.0398C33.7603 26.5278 32.5923 30.4478 31.1843 34.7998C30.6403 36.3998 29.9523 37.1998 29.1203 37.1998C28.6723 37.1998 28.2883 37.0238 27.9683 36.6718C27.6483 36.2878 27.4883 35.8718 27.4883 35.4238C27.4883 34.9438 27.6003 34.2078 27.8243 33.2158C28.0803 32.1918 28.4323 30.8478 28.8803 29.1838C29.3603 27.4878 29.7283 26.1118 29.9843 25.0558C30.2723 23.9998 30.5603 22.8158 30.8483 21.5038C31.1363 20.1598 31.3603 19.0878 31.5203 18.2878C31.7123 17.4558 31.9203 16.6238 32.1443 15.7918C32.5923 14.2238 33.0563 13.4398 33.5363 13.4398ZM47.1669 37.2478C45.3109 37.2478 43.5669 36.5278 41.9349 35.0878C40.3029 33.6158 39.4869 31.8878 39.4869 29.9038C39.4869 27.8878 40.1589 25.5678 41.5029 22.9438C42.8469 20.3198 44.5749 18.0798 46.6869 16.2238C48.8309 14.3678 50.9109 13.4398 52.9269 13.4398C54.2389 13.4398 55.3909 14.0318 56.3829 15.2158C57.3749 16.3998 57.8709 17.4398 57.8709 18.3358C57.8709 18.5918 57.7909 18.8158 57.6309 19.0078C57.4709 19.1678 57.2309 19.2478 56.9109 19.2478C56.6229 19.2478 56.0949 18.9598 55.3269 18.3838C54.5589 17.8078 53.8709 17.5198 53.2629 17.5198C51.5349 17.5198 49.5189 19.0398 47.2149 22.0798C44.9109 25.1198 43.7589 27.7758 43.7589 30.0478C43.7589 31.0398 44.0629 31.8238 44.6709 32.3998C45.3109 32.9758 46.3189 33.2638 47.6949 33.2638C49.1029 33.2638 50.3829 33.1038 51.5349 32.7838C52.7189 32.4318 53.6309 32.0958 54.2709 31.7758C54.9109 31.4238 55.4069 31.2478 55.7589 31.2478C56.3669 31.2478 56.6709 31.5518 56.6709 32.1598C56.6709 33.0878 55.5509 34.1758 53.3109 35.4238C51.1029 36.6398 49.0549 37.2478 47.1669 37.2478ZM66.8471 1.87177C66.8471 0.623773 67.2311 -0.000226974 67.9991 -0.000226974C68.6071 -0.000226974 69.2471 0.479773 69.9191 1.43977C70.6231 2.39977 70.9751 3.32777 70.9751 4.22377C70.9751 6.30377 70.4471 9.85577 69.3911 14.8798C68.3671 19.8718 67.0231 24.8638 65.3591 29.8558C68.5591 24.0638 71.2311 19.8878 73.3751 17.3278C75.5511 14.7358 77.4071 13.4398 78.9431 13.4398C79.7751 13.4398 80.7351 14.1598 81.8231 15.5998C82.9431 17.0398 83.5031 18.4798 83.5031 19.9198C83.5031 21.3598 83.1031 23.5198 82.3031 26.3998C80.3191 33.6318 78.4471 37.2478 76.6871 37.2478C75.9831 37.2478 75.6311 36.7678 75.6311 35.8078C75.6311 34.8478 76.0151 33.2318 76.7831 30.9598C78.4791 25.9998 79.3271 22.6558 79.3271 20.9278C79.3271 20.3518 79.1831 19.8718 78.8951 19.4878C78.6071 19.1038 78.2551 18.9118 77.8391 18.9118C77.4231 18.9118 76.9111 19.1358 76.3031 19.5838C75.6951 20.0318 74.9591 20.8158 74.0951 21.9358C73.0071 23.3758 71.8711 24.9918 70.6871 26.7838C69.5351 28.5758 68.8311 29.6638 68.5751 30.0478C68.3511 30.3998 67.9351 31.0558 67.3271 32.0158C66.7511 32.9758 66.3191 33.6958 66.0311 34.1758C65.7431 34.6238 65.3911 35.1198 64.9751 35.6638C64.2391 36.7198 63.6791 37.2478 63.2951 37.2478C62.9111 37.2478 62.3991 36.8958 61.7591 36.1918C61.1191 35.4558 60.7991 34.8478 60.7991 34.3678C60.7991 33.8558 60.9751 32.9118 61.3271 31.5358C62.9271 25.3918 63.9351 21.1838 64.3511 18.9118C66.0151 10.5918 66.8471 4.91177 66.8471 1.87177ZM108.263 27.6958C108.263 30.3198 107.079 32.5278 104.711 34.3198C102.343 36.0798 99.6226 36.9598 96.5506 36.9598C93.5106 36.9598 90.9986 36.1758 89.0146 34.6078C87.0306 33.0078 86.0386 31.5038 86.0386 30.0958C86.0386 29.1358 86.3266 28.6558 86.9026 28.6558C87.4146 28.6558 88.4226 29.4238 89.9266 30.9598C90.5026 31.5038 91.2706 32.0158 92.2306 32.4958C93.2226 32.9758 94.2626 33.2158 95.3506 33.2158C97.5906 33.2158 99.5746 32.6398 101.303 31.4878C103.063 30.3358 103.943 29.0878 103.943 27.7438C103.943 26.8798 103.367 25.7758 102.215 24.4318C101.063 23.0878 99.7826 21.8238 98.3746 20.6398C96.9986 19.4238 95.7346 18.1278 94.5826 16.7518C93.4306 15.3758 92.8546 14.2878 92.8546 13.4878C92.8546 12.6878 93.0146 11.8398 93.3346 10.9438C93.6546 10.0478 94.0066 9.39177 94.3906 8.97577C95.6386 7.59977 97.5746 6.33577 100.199 5.18377C102.855 4.03177 105.079 3.45577 106.871 3.45577C107.799 3.45577 108.583 3.75977 109.223 4.36777C109.863 4.97577 110.183 5.61577 110.183 6.28777C110.183 6.60777 109.847 6.86377 109.175 7.05577C108.503 7.24777 107.479 7.50377 106.103 7.82377C104.759 8.11177 103.559 8.46377 102.503 8.87977C98.8226 10.2878 96.9826 11.6478 96.9826 12.9598C96.9826 13.6638 98.8546 15.6318 102.599 18.8638C104.039 20.1118 105.335 21.5678 106.487 23.2318C107.671 24.8638 108.263 26.3518 108.263 27.6958ZM125.924 13.4398C127.364 13.4398 128.692 14.1758 129.908 15.6478C131.124 17.0878 131.732 18.3998 131.732 19.5838C131.732 20.7358 131.332 21.9198 130.532 23.1358C130.916 23.6158 131.108 24.0318 131.108 24.3838C131.108 25.2798 130.9 26.8158 130.484 28.9918C130.1 31.1678 129.86 32.5918 129.764 33.2638C129.7 33.9358 129.636 34.4798 129.572 34.8958C129.508 35.2798 129.428 35.6638 129.332 36.0478C129.204 36.8478 128.916 37.2478 128.468 37.2478C127.892 37.2478 127.412 36.7518 127.028 35.7598C126.676 34.7358 126.468 33.4238 126.404 31.8238C123.556 35.4398 120.916 37.2478 118.484 37.2478C117.012 37.2478 115.556 36.6238 114.116 35.3758C112.708 34.0958 112.004 32.7838 112.004 31.4398C112.004 29.5198 112.708 27.1518 114.116 24.3358C115.524 21.4878 117.348 18.9598 119.588 16.7518C121.828 14.5438 123.94 13.4398 125.924 13.4398ZM128.132 21.8878C128.132 18.9118 127.54 17.4238 126.356 17.4238C125.108 17.4238 123.652 18.3198 121.988 20.1118C120.324 21.8718 118.916 23.8718 117.764 26.1118C116.612 28.3518 116.036 30.1278 116.036 31.4398C116.036 31.9838 116.26 32.4318 116.708 32.7838C117.156 33.1038 117.684 33.2638 118.292 33.2638C119.796 33.2638 121.492 32.2558 123.38 30.2398C125.268 28.1918 126.58 25.7118 127.316 22.7998C127.412 22.3198 127.684 22.0318 128.132 21.9358V21.8878ZM152.585 13.4398C153.129 13.4398 153.657 13.6478 154.169 14.0638C154.681 14.4478 154.937 14.8798 154.937 15.3598C154.937 16.2238 153.769 19.2158 151.433 24.3358C149.129 29.4558 147.481 32.9118 146.489 34.7038C145.529 36.4638 144.681 37.3438 143.945 37.3438C143.529 37.3438 143.017 37.0398 142.409 36.4318C141.801 35.8238 141.353 35.1678 141.065 34.4638C140.201 32.4478 139.273 29.1998 138.281 24.7198C137.289 20.2398 136.793 16.9598 136.793 14.8798C136.793 13.9198 137.081 13.4398 137.657 13.4398C138.361 13.4398 139.081 13.7438 139.817 14.3518C140.553 14.9278 141.065 15.6638 141.353 16.5598C141.449 17.0718 141.577 18.3518 141.737 20.3998C142.185 25.4558 142.953 29.3438 144.041 32.0638C144.905 30.2078 146.009 27.5838 147.353 24.1918C148.697 20.7678 149.785 18.1278 150.617 16.2718C151.481 14.3838 152.137 13.4398 152.585 13.4398ZM175.796 21.4078C175.796 23.1038 174.868 24.4958 173.012 25.5838C171.188 26.6398 169.108 27.1678 166.772 27.1678C164.468 27.1678 162.372 26.9118 160.484 26.3998C160.036 27.8078 159.812 29.0718 159.812 30.1918C159.812 31.2798 160.148 32.1278 160.82 32.7358C161.524 33.3438 162.66 33.6478 164.228 33.6478C165.828 33.6478 167.46 33.3758 169.124 32.8318C170.82 32.2558 171.748 31.9678 171.908 31.9678C172.74 31.9678 173.156 32.2878 173.156 32.9278C173.156 33.7918 172.18 34.7358 170.228 35.7598C168.276 36.7518 166.372 37.2478 164.516 37.2478C162.02 37.2478 159.988 36.5118 158.42 35.0398C156.852 33.5358 156.068 31.6478 156.068 29.3758C156.068 27.1038 156.676 24.7358 157.892 22.2718C159.108 19.7758 160.676 17.6798 162.596 15.9838C164.516 14.2878 166.42 13.4398 168.308 13.4398C170.196 13.4398 171.908 14.3358 173.444 16.1278C175.012 17.9198 175.796 19.6798 175.796 21.4078ZM168.548 17.2318C167.364 17.2318 166.132 17.8558 164.852 19.1038C163.572 20.3198 162.484 21.8398 161.588 23.6638C162.868 23.9518 164.324 24.0958 165.956 24.0958C167.588 24.0958 169.012 23.8398 170.228 23.3278C171.444 22.7838 172.052 22.0798 172.052 21.2158C172.052 20.3518 171.652 19.4718 170.852 18.5758C170.084 17.6798 169.316 17.2318 168.548 17.2318Z" fill="#101828"/>
</svg>
