<svg width="40" height="40" viewBox="0 0 40 40" fill="none" xmlns="http://www.w3.org/2000/svg">
<path d="M0 14C0 6.26802 6.26801 0 14 0H25.9949C33.7269 0 39.9949 6.26801 39.9949 14V25.9949C39.9949 33.7269 33.7269 39.9949 25.9949 39.9949H14C6.26802 39.9949 0 33.7269 0 25.9949V14Z" fill="#F9FAFB"/>
<path d="M19.9974 28.3277C24.5981 28.3277 28.3277 24.5981 28.3277 19.9974C28.3277 15.3968 24.5981 11.6672 19.9974 11.6672C15.3968 11.6672 11.6672 15.3968 11.6672 19.9974C11.6672 24.5981 15.3968 28.3277 19.9974 28.3277Z" stroke="#4A5565" stroke-width="1.66604" stroke-linecap="round" stroke-linejoin="round"/>
<path d="M17.5735 17.4984C17.7693 16.9416 18.1559 16.4722 18.6647 16.1732C19.1735 15.8741 19.7717 15.7648 20.3534 15.8646C20.9351 15.9644 21.4627 16.2668 21.8428 16.7183C22.2229 17.1698 22.4309 17.7412 22.43 18.3314C22.43 19.9974 19.9309 20.8305 19.9309 20.8305" stroke="#4A5565" stroke-width="1.66604" stroke-linecap="round" stroke-linejoin="round"/>
<path d="M19.9976 24.1626H20.0059" stroke="#4A5565" stroke-width="1.66604" stroke-linecap="round" stroke-linejoin="round"/>
</svg>
