<svg width="40" height="40" viewBox="0 0 40 40" fill="none" xmlns="http://www.w3.org/2000/svg">
<path d="M0 14C0 6.26802 6.26801 0 14 0H25.9949C33.7269 0 39.9949 6.26801 39.9949 14V25.9949C39.9949 33.7269 33.7269 39.9949 25.9949 39.9949H14C6.26802 39.9949 0 33.7269 0 25.9949V14Z" fill="#F9FAFB"/>
<path d="M25.8286 19.1644H14.1663C13.2462 19.1644 12.5002 19.9103 12.5002 20.8305V26.6616C12.5002 27.5817 13.2462 28.3277 14.1663 28.3277H25.8286C26.7487 28.3277 27.4946 27.5817 27.4946 26.6616V20.8305C27.4946 19.9103 26.7487 19.1644 25.8286 19.1644Z" stroke="#4A5565" stroke-width="1.66604" stroke-linecap="round" stroke-linejoin="round"/>
<path d="M15.8323 19.1644V15.8323C15.8323 14.7277 16.2711 13.6683 17.0522 12.8872C17.8333 12.1061 18.8927 11.6672 19.9974 11.6672C21.102 11.6672 22.1614 12.1061 22.9426 12.8872C23.7237 13.6683 24.1625 14.7277 24.1625 15.8323V19.1644" stroke="#4A5565" stroke-width="1.66604" stroke-linecap="round" stroke-linejoin="round"/>
</svg>
