<svg width="40" height="40" viewBox="0 0 40 40" fill="none" xmlns="http://www.w3.org/2000/svg">
<path d="M0 14C0 6.26802 6.26801 0 14 0H25.9949C33.7269 0 39.9949 6.26801 39.9949 14V25.9949C39.9949 33.7269 33.7269 39.9949 25.9949 39.9949H14C6.26802 39.9949 0 33.7269 0 25.9949V14Z" fill="#F9FAFB"/>
<path d="M18.5547 27.4947C18.7009 27.7479 18.9112 27.9582 19.1645 28.1045C19.4178 28.2507 19.705 28.3276 19.9975 28.3276C20.2899 28.3276 20.5772 28.2507 20.8305 28.1045C21.0837 27.9582 21.294 27.7479 21.4403 27.4947" stroke="#4A5565" stroke-width="1.66604" stroke-linecap="round" stroke-linejoin="round"/>
<path d="M12.7186 22.7681C12.6098 22.8873 12.538 23.0357 12.5119 23.195C12.4858 23.3544 12.5066 23.5178 12.5718 23.6656C12.6369 23.8133 12.7436 23.9389 12.8788 24.0272C13.014 24.1154 13.1719 24.1624 13.3334 24.1626H26.6617C26.8232 24.1626 26.9811 24.1158 27.1164 24.0277C27.2517 23.9396 27.3585 23.8141 27.4238 23.6665C27.4892 23.5189 27.5102 23.3554 27.4843 23.1961C27.4584 23.0367 27.3868 22.8883 27.2782 22.7689C26.1702 21.6268 24.9957 20.4131 24.9957 16.6654C24.9957 15.3398 24.4691 14.0685 23.5318 13.1312C22.5944 12.1938 21.3231 11.6672 19.9976 11.6672C18.672 11.6672 17.4007 12.1938 16.4633 13.1312C15.526 14.0685 14.9994 15.3398 14.9994 16.6654C14.9994 20.4131 13.824 21.6268 12.7186 22.7681Z" stroke="#4A5565" stroke-width="1.66604" stroke-linecap="round" stroke-linejoin="round"/>
</svg>
