<svg width="40" height="40" viewBox="0 0 40 40" fill="none" xmlns="http://www.w3.org/2000/svg">
<path d="M0 14C0 6.26802 6.26801 0 14 0H25.9949C33.7269 0 39.9949 6.26801 39.9949 14V25.9949C39.9949 33.7269 33.7269 39.9949 25.9949 39.9949H14C6.26802 39.9949 0 33.7269 0 25.9949V14Z" fill="#F9FAFB"/>
<path d="M26.6616 20.8305C26.6616 24.9956 23.746 27.0781 20.2806 28.286C20.0992 28.3475 19.9021 28.3446 19.7225 28.2777C16.2488 27.0781 13.3333 24.9956 13.3333 20.8305V14.9993C13.3333 14.7784 13.421 14.5665 13.5772 14.4103C13.7335 14.2541 13.9453 14.1663 14.1663 14.1663C15.8323 14.1663 17.9149 13.1667 19.3643 11.9005C19.5408 11.7497 19.7653 11.6669 19.9974 11.6669C20.2295 11.6669 20.454 11.7497 20.6305 11.9005C22.0883 13.175 24.1625 14.1663 25.8286 14.1663C26.0495 14.1663 26.2614 14.2541 26.4176 14.4103C26.5738 14.5665 26.6616 14.7784 26.6616 14.9993V20.8305Z" stroke="#4A5565" stroke-width="1.66604" stroke-linecap="round" stroke-linejoin="round"/>
</svg>
