<svg width="40" height="40" viewBox="0 0 40 40" fill="none" xmlns="http://www.w3.org/2000/svg">
<path d="M0 14C0 6.26802 6.26801 0 14 0H25.9949C33.7269 0 39.9949 6.26801 39.9949 14V25.9949C39.9949 33.7269 33.7269 39.9949 25.9949 39.9949H14C6.26802 39.9949 0 33.7269 0 25.9949V14Z" fill="#F9FAFB"/>
<path d="M16.5821 26.6617C18.1719 27.4773 20.0009 27.6982 21.7392 27.2846C23.4776 26.871 25.011 25.8502 26.0633 24.406C27.1156 22.9618 27.6174 21.1893 27.4785 19.4079C27.3395 17.6264 26.5688 15.9532 25.3053 14.6897C24.0418 13.4262 22.3685 12.6555 20.5871 12.5165C18.8056 12.3775 17.0331 12.8794 15.5889 13.9317C14.1448 14.9839 13.1239 16.5174 12.7104 18.2558C12.2968 19.9941 12.5177 21.823 13.3333 23.4129L11.6672 28.3277L16.5821 26.6617Z" stroke="#4A5565" stroke-width="1.66604" stroke-linecap="round" stroke-linejoin="round"/>
</svg>
