<svg width="40" height="40" viewBox="0 0 40 40" fill="none" xmlns="http://www.w3.org/2000/svg">
<path d="M0 14C0 6.26802 6.26801 0 14 0H25.9949C33.7269 0 39.9949 6.26801 39.9949 14V25.9949C39.9949 33.7269 33.7269 39.9949 25.9949 39.9949H14C6.26802 39.9949 0 33.7269 0 25.9949V14Z" fill="#F9FAFB"/>
<g clip-path="url(#clip0_63_1151)">
<path d="M20.1807 11.6672H19.8142C19.3723 11.6672 18.9485 11.8427 18.6361 12.1551C18.3237 12.4676 18.1481 12.8914 18.1481 13.3332V13.4832C18.1478 13.7753 18.0707 14.0623 17.9245 14.3152C17.7783 14.5682 17.5681 14.7782 17.3151 14.9243L16.9569 15.1325C16.7036 15.2788 16.4163 15.3558 16.1239 15.3558C15.8314 15.3558 15.5441 15.2788 15.2909 15.1325L15.1659 15.0659C14.7836 14.8454 14.3294 14.7855 13.903 14.8996C13.4767 15.0136 13.113 15.2921 12.8918 15.674L12.7085 15.9906C12.488 16.3729 12.4281 16.827 12.5421 17.2534C12.6562 17.6798 12.9347 18.0435 13.3166 18.2647L13.4416 18.348C13.6934 18.4934 13.9027 18.7021 14.0489 18.9535C14.195 19.2048 14.2728 19.4901 14.2746 19.7808V20.2056C14.2757 20.4992 14.1993 20.7879 14.053 21.0424C13.9067 21.297 13.6958 21.5083 13.4416 21.6551L13.3166 21.7301C12.9347 21.9513 12.6562 22.315 12.5421 22.7414C12.4281 23.1677 12.488 23.6219 12.7085 24.0042L12.8918 24.3208C13.113 24.7027 13.4767 24.9812 13.903 25.0952C14.3294 25.2092 14.7836 25.1494 15.1659 24.9289L15.2909 24.8622C15.5441 24.716 15.8314 24.639 16.1239 24.639C16.4163 24.639 16.7036 24.716 16.9569 24.8622L17.3151 25.0705C17.5681 25.2166 17.7783 25.4266 17.9245 25.6796C18.0707 25.9325 18.1478 26.2195 18.1481 26.5116V26.6616C18.1481 27.1034 18.3237 27.5272 18.6361 27.8396C18.9485 28.1521 19.3723 28.3276 19.8142 28.3276H20.1807C20.6226 28.3276 21.0463 28.1521 21.3588 27.8396C21.6712 27.5272 21.8467 27.1034 21.8467 26.6616V26.5116C21.847 26.2195 21.9242 25.9325 22.0704 25.6796C22.2166 25.4266 22.4267 25.2166 22.6798 25.0705L23.038 24.8622C23.2912 24.716 23.5785 24.639 23.871 24.639C24.1634 24.639 24.4507 24.716 24.704 24.8622L24.829 24.9289C25.2113 25.1494 25.6654 25.2092 26.0918 25.0952C26.5182 24.9812 26.8819 24.7027 27.1031 24.3208L27.2864 23.9959C27.5069 23.6136 27.5667 23.1594 27.4527 22.733C27.3387 22.3067 27.0602 21.943 26.6783 21.7217L26.5533 21.6551C26.2991 21.5083 26.0881 21.297 25.9418 21.0424C25.7955 20.7879 25.7191 20.4992 25.7203 20.2056V19.7891C25.7191 19.4956 25.7955 19.2069 25.9418 18.9524C26.0881 18.6978 26.2991 18.4865 26.5533 18.3397L26.6783 18.2647C27.0602 18.0435 27.3387 17.6798 27.4527 17.2534C27.5667 16.827 27.5069 16.3729 27.2864 15.9906L27.1031 15.674C26.8819 15.2921 26.5182 15.0136 26.0918 14.8996C25.6654 14.7855 25.2113 14.8454 24.829 15.0659L24.704 15.1325C24.4507 15.2788 24.1634 15.3558 23.871 15.3558C23.5785 15.3558 23.2912 15.2788 23.038 15.1325L22.6798 14.9243C22.4267 14.7782 22.2166 14.5682 22.0704 14.3152C21.9242 14.0623 21.847 13.7753 21.8467 13.4832V13.3332C21.8467 12.8914 21.6712 12.4676 21.3588 12.1551C21.0463 11.8427 20.6226 11.6672 20.1807 11.6672Z" stroke="#4A5565" stroke-width="1.66604" stroke-linecap="round" stroke-linejoin="round"/>
<path d="M19.9974 22.4965C21.3775 22.4965 22.4964 21.3776 22.4964 19.9974C22.4964 18.6172 21.3775 17.4984 19.9974 17.4984C18.6172 17.4984 17.4983 18.6172 17.4983 19.9974C17.4983 21.3776 18.6172 22.4965 19.9974 22.4965Z" stroke="#4A5565" stroke-width="1.66604" stroke-linecap="round" stroke-linejoin="round"/>
</g>
<defs>
<clipPath id="clip0_63_1151">
<rect width="19.9925" height="19.9925" fill="white" transform="translate(10.0012 10.0012)"/>
</clipPath>
</defs>
</svg>
